<svg width="100" height="20" viewBox="0 0 100 20" fill="none" xmlns="http://www.w3.org/2000/svg">
<path d="M49.0404 1.78247C50.8192 1.98766 53.1176 3.17775 54.9484 2.84945C56.2633 2.61393 56.0322 2.59965 57.4581 2.67638C58.0063 2.70671 59.0865 2.86015 59.3409 2.32131L58.8035 1.78425L59.5308 1.49342L59.3391 0L61.8488 0.180209L61.6607 1.48985L62.1981 1.89309L62.0262 2.67638C62.4865 2.6175 62.9236 2.89584 63.3733 2.87443C63.7853 2.85302 63.9859 2.54434 64.4338 2.49081C65.5785 2.35164 68.3318 2.63712 69.6306 2.68708C70.5102 2.72098 71.2697 2.58359 72.1242 2.51758C72.5559 2.64604 72.4574 4.30718 72.4252 4.73897C72.4055 4.9959 72.4252 5.22964 72.1242 5.33848C71.216 5.2564 70.3794 5.13329 69.4515 5.16897C68.9606 5.1886 68.511 5.41163 68.0219 5.37238C67.4218 5.3242 67.1656 4.82461 66.2323 4.99769C65.634 5.10831 65.5713 5.94869 66.089 6.21633C66.7411 6.55534 66.8665 6.0379 67.1065 6.08073C67.3269 6.11998 67.5598 6.65525 67.8786 6.74982C68.4035 6.90505 69.5876 6.61779 69.919 6.85866C70.1465 7.06028 70.0086 7.40642 70.1411 7.62946C70.1949 7.72045 70.6624 7.70618 70.4349 8.38062L69.9083 8.39133L70.1752 9.27989H80.4757L80.4578 8.46805C80.8375 8.13083 81.3248 8.06124 81.812 8.02378C84.1211 7.84713 88.5065 7.80431 90.7797 8.02913C91.6342 8.11299 92.0194 8.57332 92.7377 8.91233L99.3909 8.90876C99.6131 9.0854 99.6256 9.28167 99.6543 9.5386C99.9176 11.9919 99.3856 14.9342 99.6417 17.4018C99.6901 17.8675 99.8925 18.2172 100 18.6561L99.468 19.3698C98.5293 18.9844 97.7339 18.6401 96.6913 18.558C94.0024 18.3474 91.3386 18.9077 88.6516 18.715L88.4384 18.5705L88.3596 16.0618H84.1498C82.7919 16.0618 80.112 18.7489 78.5571 19.0558C77.8244 19.2003 76.9932 18.9933 76.2749 19.1022C75.7357 19.1843 75.2699 19.6731 74.797 19.7713C74.4261 19.848 72.6921 20.0211 72.3266 19.9979C71.8716 19.9693 71.4005 19.7534 71.1927 19.3306L70.623 15.1679C69.1971 15.5319 67.7425 15.9173 66.2431 15.6961C65.3438 15.564 64.9622 14.3864 64.2672 14.4417L63.8426 14.7468L63.9197 16.6078L63.7029 16.7505L56.5481 16.2545C55.9569 15.7853 56.5911 14.1277 56.1217 13.8244C54.0401 13.5353 51.792 12.5165 49.7372 12.3327C48.6445 12.2346 47.2794 12.2792 46.1652 12.306C42.5323 12.3898 38.7094 12.7645 35.0586 12.5005C34.6484 12.4701 34.3008 12.3363 33.9014 12.3131V9.3691C33.9014 9.32806 34.0877 9.22458 34.0823 9.10325C33.8924 9.16926 33.6846 8.92304 33.6326 8.92304H6.2262C6.13663 8.92304 5.79985 9.57607 5.16032 9.64744C4.31479 9.74201 4.1446 9.33877 3.54986 9.26918C2.60759 9.16034 1.48618 9.39586 0.520625 9.25312C-0.0669501 9.06578 -0.330284 6.94966 0.676476 6.78372C2.14183 6.54106 4.16789 6.96928 5.70311 6.76766L6.21366 7.15128C16.6055 7.24584 27.0278 7.06206 37.3892 6.95144C41.8408 6.90327 46.3193 7.0692 50.7547 6.88186L51.0109 6.24488C51.5967 5.80952 52.247 6.10749 52.8041 6.42866L52.8972 6.07181H53.2501L53.3433 6.42866L54.0599 6.06288L54.153 6.41973H54.5059L54.5238 6.08786L55.2225 6.42509L55.4141 5.44732L55.1114 5.02088C53.0674 4.69436 50.9822 5.70603 49.0458 5.88981C47.4801 6.03969 45.7066 5.7774 44.1176 5.88981V2.0501L44.3864 1.78247C45.8696 1.90558 47.5947 1.61475 49.044 1.78247H49.0404ZM62.0602 5.02802C61.9312 5.74529 60.6002 5.58827 59.9589 5.53831C59.0883 5.46873 58.5419 4.67117 57.4832 5.01731C56.8419 5.32956 57.2396 6.37691 57.8182 6.36264C57.9042 6.36085 58.0582 6.15031 58.3216 6.1182C58.6834 6.07359 59.1564 6.1182 59.434 6.36085L59.7887 6.11998L60.3261 6.42687L60.5071 6.05932L61.0445 6.36442L61.4028 6.12533L61.7592 6.36442L62.2698 6.08786L62.6603 6.37156L63.1941 6.05932C63.1977 6.64098 63.8767 6.25558 63.977 5.95048C64.0683 5.67035 63.977 5.29387 64.0021 4.99233L62.062 5.02802H62.0602ZM73.9729 12.3399C72.4287 13.2249 73.9228 15.6746 75.2036 15.8673C77.8155 16.2617 78.7344 14.4506 77.2601 12.3916L73.9729 12.3381V12.3399ZM69.5106 12.7056C69.2204 12.6575 68.7689 12.3417 68.5647 12.6646C68.4125 12.9055 68.6597 13.1642 68.6507 13.455C68.6292 14.1009 68.1527 14.7022 67.4935 14.8093C66.8522 14.8182 67.6762 14.4275 67.764 14.3186C67.884 14.1723 68.1115 13.8065 68.1276 13.637L67.7281 12.7003C67.1101 12.6396 66.1428 12.5254 65.7057 13.0286C64.8118 14.9431 66.1589 15.3356 67.8517 15.1661C69.0932 15.043 70.2486 13.9564 69.5106 12.7056Z" fill="white"/>
</svg>
