<svg width="34" height="34" viewBox="0 0 34 34" fill="none" xmlns="http://www.w3.org/2000/svg">
<path d="M0.933631 18.0066H3.77649C4.26673 24.4934 9.47681 29.7081 15.9611 30.1975V32.9934C15.9611 33.5525 16.3954 34 16.9556 34C17.5298 34 17.964 33.5525 17.964 32.9934V30.1975C24.4484 29.7081 29.6585 24.4934 30.1487 18.006H32.9915C33.1241 18.0067 33.2555 17.9811 33.3781 17.9308C33.5007 17.8805 33.6121 17.8064 33.7058 17.7128C33.7996 17.6193 33.8739 17.5082 33.9244 17.3858C33.9748 17.2634 34.0006 17.1323 34 17C34 16.4408 33.5517 16.0073 32.9915 16.0073H30.1487C29.6585 9.52061 24.4484 4.30586 17.964 3.8165V1.00664C17.964 0.447464 17.5292 0 16.9556 0C16.3954 0 15.9611 0.447464 15.9611 1.00664V3.8165C9.47681 4.30586 4.26673 9.52061 3.77649 16.0079H0.933631C0.373452 16.0073 0 16.4402 0 17C0 17.5598 0.373452 18.0066 0.933631 18.0066ZM16.9556 11.478C17.5298 11.478 17.964 11.0306 17.964 10.4714V6.09571C23.2301 6.5705 27.3192 10.6948 27.7821 16.0073H23.5099C22.9503 16.0073 22.5014 16.4408 22.5014 17C22.5014 17.5592 22.9497 18.0066 23.5099 18.0066H27.7821C27.3198 23.3052 23.2301 27.4295 17.964 27.9049V23.5286C17.964 22.97 17.5298 22.5359 16.9556 22.5359C16.3954 22.5359 15.9611 22.9694 15.9611 23.5286V27.9049C10.6951 27.4295 6.60597 23.3052 6.14372 18.0066H10.4153C10.9749 18.0066 11.4238 17.5592 11.4238 17C11.4238 16.4408 10.9755 16.0073 10.4153 16.0073H6.14311C6.60536 10.6948 10.6945 6.5705 15.9605 6.09571V10.4714C15.9605 11.03 16.3954 11.478 16.9556 11.478Z" fill="white"/>
</svg>
