<svg width="116" height="116" viewBox="0 0 116 116" fill="none" xmlns="http://www.w3.org/2000/svg">
<rect opacity="0.1" width="116" height="116" transform="matrix(4.37114e-08 1 1 -4.37114e-08 0 5.07052e-06)" fill="#D9D9D9"/>
<rect x="0.5" y="0.5" width="115" height="115" transform="matrix(4.37114e-08 1 1 -4.37114e-08 2.18557e-08 5.04867e-06)" stroke="#878787"/>
<path d="M10 5.07052e-06L10 115" stroke="url(#paint0_linear_182_34181)" stroke-dasharray="1 8"/>
<path d="M19.7002 5.07052e-06L19.7002 115" stroke="url(#paint1_linear_182_34181)" stroke-dasharray="1 8"/>
<path d="M29.3999 5.07052e-06L29.3999 115" stroke="url(#paint2_linear_182_34181)" stroke-dasharray="1 8"/>
<path d="M39.1001 5.07052e-06L39.1001 115" stroke="url(#paint3_linear_182_34181)" stroke-dasharray="1 8"/>
<path d="M48.7998 5.07052e-06L48.7998 115" stroke="url(#paint4_linear_182_34181)" stroke-dasharray="1 8"/>
<path d="M58.5 5.07052e-06L58.5 115" stroke="url(#paint5_linear_182_34181)" stroke-dasharray="1 8"/>
<path d="M68.2002 5.07052e-06L68.2002 115" stroke="url(#paint6_linear_182_34181)" stroke-dasharray="1 8"/>
<path d="M77.8999 5.07052e-06L77.8999 115" stroke="url(#paint7_linear_182_34181)" stroke-dasharray="1 8"/>
<path d="M87.6001 5.07052e-06L87.6001 115" stroke="url(#paint8_linear_182_34181)" stroke-dasharray="1 8"/>
<path d="M97.2998 5.07052e-06L97.2998 115" stroke="url(#paint9_linear_182_34181)" stroke-dasharray="1 8"/>
<path d="M107 5.07052e-06L107 115" stroke="url(#paint10_linear_182_34181)" stroke-dasharray="1 8"/>
<defs>
<linearGradient id="paint0_linear_182_34181" x1="10.5" y1="5.04691e-06" x2="10.5" y2="115" gradientUnits="userSpaceOnUse">
<stop stop-color="#D0D0D0" stop-opacity="0"/>
<stop offset="0.25" stop-color="#D0D0D0"/>
<stop offset="0.75" stop-color="#D0D0D0"/>
<stop offset="1" stop-color="#D0D0D0" stop-opacity="0"/>
</linearGradient>
<linearGradient id="paint1_linear_182_34181" x1="20.2002" y1="5.04691e-06" x2="20.2002" y2="115" gradientUnits="userSpaceOnUse">
<stop stop-color="#D0D0D0" stop-opacity="0"/>
<stop offset="0.25" stop-color="#D0D0D0"/>
<stop offset="0.75" stop-color="#D0D0D0"/>
<stop offset="1" stop-color="#D0D0D0" stop-opacity="0"/>
</linearGradient>
<linearGradient id="paint2_linear_182_34181" x1="29.8999" y1="5.04691e-06" x2="29.8999" y2="115" gradientUnits="userSpaceOnUse">
<stop stop-color="#D0D0D0" stop-opacity="0"/>
<stop offset="0.25" stop-color="#D0D0D0"/>
<stop offset="0.75" stop-color="#D0D0D0"/>
<stop offset="1" stop-color="#D0D0D0" stop-opacity="0"/>
</linearGradient>
<linearGradient id="paint3_linear_182_34181" x1="39.6001" y1="5.04691e-06" x2="39.6001" y2="115" gradientUnits="userSpaceOnUse">
<stop stop-color="#D0D0D0" stop-opacity="0"/>
<stop offset="0.25" stop-color="#D0D0D0"/>
<stop offset="0.75" stop-color="#D0D0D0"/>
<stop offset="1" stop-color="#D0D0D0" stop-opacity="0"/>
</linearGradient>
<linearGradient id="paint4_linear_182_34181" x1="49.2998" y1="5.04691e-06" x2="49.2998" y2="115" gradientUnits="userSpaceOnUse">
<stop stop-color="#D0D0D0" stop-opacity="0"/>
<stop offset="0.25" stop-color="#D0D0D0"/>
<stop offset="0.75" stop-color="#D0D0D0"/>
<stop offset="1" stop-color="#D0D0D0" stop-opacity="0"/>
</linearGradient>
<linearGradient id="paint5_linear_182_34181" x1="59" y1="5.04691e-06" x2="59" y2="115" gradientUnits="userSpaceOnUse">
<stop stop-color="#D0D0D0" stop-opacity="0"/>
<stop offset="0.25" stop-color="#D0D0D0"/>
<stop offset="0.75" stop-color="#D0D0D0"/>
<stop offset="1" stop-color="#D0D0D0" stop-opacity="0"/>
</linearGradient>
<linearGradient id="paint6_linear_182_34181" x1="68.7002" y1="5.04691e-06" x2="68.7002" y2="115" gradientUnits="userSpaceOnUse">
<stop stop-color="#D0D0D0" stop-opacity="0"/>
<stop offset="0.25" stop-color="#D0D0D0"/>
<stop offset="0.75" stop-color="#D0D0D0"/>
<stop offset="1" stop-color="#D0D0D0" stop-opacity="0"/>
</linearGradient>
<linearGradient id="paint7_linear_182_34181" x1="78.3999" y1="5.04691e-06" x2="78.3999" y2="115" gradientUnits="userSpaceOnUse">
<stop stop-color="#D0D0D0" stop-opacity="0"/>
<stop offset="0.25" stop-color="#D0D0D0"/>
<stop offset="0.75" stop-color="#D0D0D0"/>
<stop offset="1" stop-color="#D0D0D0" stop-opacity="0"/>
</linearGradient>
<linearGradient id="paint8_linear_182_34181" x1="88.1001" y1="5.04691e-06" x2="88.1001" y2="115" gradientUnits="userSpaceOnUse">
<stop stop-color="#D0D0D0" stop-opacity="0"/>
<stop offset="0.25" stop-color="#D0D0D0"/>
<stop offset="0.75" stop-color="#D0D0D0"/>
<stop offset="1" stop-color="#D0D0D0" stop-opacity="0"/>
</linearGradient>
<linearGradient id="paint9_linear_182_34181" x1="97.7998" y1="5.04691e-06" x2="97.7998" y2="115" gradientUnits="userSpaceOnUse">
<stop stop-color="#D0D0D0" stop-opacity="0"/>
<stop offset="0.25" stop-color="#D0D0D0"/>
<stop offset="0.75" stop-color="#D0D0D0"/>
<stop offset="1" stop-color="#D0D0D0" stop-opacity="0"/>
</linearGradient>
<linearGradient id="paint10_linear_182_34181" x1="107.5" y1="5.04484e-06" x2="107.5" y2="115" gradientUnits="userSpaceOnUse">
<stop stop-color="#D0D0D0" stop-opacity="0"/>
<stop offset="0.25" stop-color="#D0D0D0"/>
<stop offset="0.75" stop-color="#D0D0D0"/>
<stop offset="1" stop-color="#D0D0D0" stop-opacity="0"/>
</linearGradient>
</defs>
</svg>
