<svg width="20" height="28" viewBox="0 0 20 28" fill="none" xmlns="http://www.w3.org/2000/svg">
<path d="M0 28V10.5H3.33333V7C3.33333 5.0505 3.98056 3.39675 5.275 2.03875C6.56833 0.679583 8.14333 0 10 0C11.8567 0 13.4322 0.679583 14.7267 2.03875C16.0211 3.39792 16.6678 5.05167 16.6667 7V10.5H20V28H0ZM5 10.5H15V7C15 5.54167 14.5139 4.30208 13.5417 3.28125C12.5694 2.26042 11.3889 1.75 10 1.75C8.61111 1.75 7.43056 2.26042 6.45833 3.28125C5.48611 4.30208 5 5.54167 5 7V10.5Z" fill="#878787"/>
</svg>
